<svg width="14" height="16" viewBox="0 0 14 16" fill="none" xmlns="http://www.w3.org/2000/svg">
<path d="M13.75 8.5625L8.25 13.8125C7.9375 14.0938 7.46875 14.0938 7.1875 13.7812C6.90625 13.4688 6.90625 13 7.21875 12.7188L11.375 8.75H0.75C0.3125 8.75 0 8.4375 0 8C0 7.59375 0.3125 7.25 0.75 7.25H11.375L7.21875 3.3125C6.90625 3.03125 6.90625 2.53125 7.1875 2.25C7.46875 1.9375 7.96875 1.9375 8.25 2.21875L13.75 7.46875C13.9062 7.625 14 7.8125 14 8C14 8.21875 13.9062 8.40625 13.75 8.5625Z" fill="#193154"/>
</svg>
