<svg width="25" height="25" viewBox="0 0 25 25" fill="none" xmlns="http://www.w3.org/2000/svg">
<g clip-path="url(#clip0_510_995)">
<path d="M22.9522 7.10689C22.8334 6.6323 22.5914 6.19746 22.2508 5.8463C21.9102 5.49513 21.4829 5.24007 21.0122 5.10689C19.2922 4.68689 12.4122 4.68689 12.4122 4.68689C12.4122 4.68689 5.53216 4.68689 3.81216 5.14689C3.34141 5.28007 2.91414 5.53513 2.57351 5.8863C2.23288 6.23746 1.99095 6.6723 1.87216 7.14689C1.55738 8.89245 1.4034 10.6632 1.41216 12.4369C1.40094 14.2239 1.55493 16.0082 1.87216 17.7669C2.00312 18.2267 2.25047 18.645 2.59031 18.9814C2.93014 19.3177 3.35098 19.5607 3.81216 19.6869C5.53216 20.1469 12.4122 20.1469 12.4122 20.1469C12.4122 20.1469 19.2922 20.1469 21.0122 19.6869C21.4829 19.5537 21.9102 19.2986 22.2508 18.9475C22.5914 18.5963 22.8334 18.1615 22.9522 17.6869C23.2645 15.9545 23.4185 14.1972 23.4122 12.4369C23.4234 10.6498 23.2694 8.86559 22.9522 7.10689Z" stroke="white" stroke-linecap="round" stroke-linejoin="round"/>
<path d="M10.1622 15.7069L15.9122 12.4369L10.1622 9.16687V15.7069Z" stroke="white" stroke-linecap="round" stroke-linejoin="round"/>
</g>
<defs>
<clipPath id="clip0_510_995">
<rect width="24" height="24" fill="white" transform="translate(0.41217 0.68689)"/>
</clipPath>
</defs>
</svg>
