<?xml version="1.0" encoding="utf-8"?><svg xmlns="http://www.w3.org/2000/svg" xmlns:xlink="http://www.w3.org/1999/xlink"><symbol fill="none" viewBox="0 0 14 16" id="blue-arrow-icon" xmlns="http://www.w3.org/2000/svg"><path d="m13.75 8.563-5.5 5.25c-.313.28-.781.28-1.063-.032-.28-.312-.28-.781.032-1.062l4.156-3.969H.75A.722.722 0 0 1 0 8a.74.74 0 0 1 .75-.75h10.625L7.219 3.312a.746.746 0 0 1-.032-1.062.746.746 0 0 1 1.063-.031l5.5 5.25c.156.156.25.343.25.531a.783.783 0 0 1-.25.563Z" fill="#193154"/></symbol><symbol fill="none" viewBox="0 0 14 14" id="orange-arrow-icon" xmlns="http://www.w3.org/2000/svg"><path d="m13.75 7.563-5.5 5.25c-.313.28-.781.28-1.063-.032-.28-.312-.28-.781.032-1.062l4.156-3.969H.75A.722.722 0 0 1 0 7a.74.74 0 0 1 .75-.75h10.625L7.219 2.312a.746.746 0 0 1-.032-1.062.746.746 0 0 1 1.063-.031l5.5 5.25c.156.156.25.343.25.531a.783.783 0 0 1-.25.563Z" fill="#E7503D"/></symbol></svg>